<?xml version="1.0" encoding="utf-8"?>
<!-- Generator: Adobe Illustrator 15.0.0, SVG Export Plug-In . SVG Version: 6.00 Build 0)  -->
<!DOCTYPE svg PUBLIC "-//W3C//DTD SVG 1.1//EN" "http://www.w3.org/Graphics/SVG/1.1/DTD/svg11.dtd">
<svg version="1.1" id="Layer_1" xmlns="http://www.w3.org/2000/svg" xmlns:xlink="http://www.w3.org/1999/xlink" x="0px" y="0px"
	 width="90.71px" height="90.71px" viewBox="0 0 90.71 90.71" enable-background="new 0 0 90.71 90.71" xml:space="preserve">
<g>
	<circle cx="45.473" cy="44.956" r="43.937"/>
	<g>
		<g>
			<path fill="#FFFFFF" d="M80.148,45.201l0.081-0.045l0.002-16.176l0.001-1.258c-0.183-1.745-1.118-3.262-2.473-4.231l-1.007-0.582
				L48.835,6.785l-0.855-0.497c-0.546-0.258-1.137-0.437-1.758-0.521l18.149,30.328L80.148,45.201z"/>
			<path fill="#FFFFFF" d="M67.067,53.167L54.67,60.316c0.512,0.296,1.98,1.154,2.076,1.225l0.308,0.177
				c0.834,0.733,1.352,1.774,1.423,2.89h-0.001c0.027,0.317,0.002,0.642-0.046,0.963L67.067,53.167z"/>
			<path fill="#FFFFFF" d="M52.157,68.619l-5.982-3.453v18.001l10.099-14.502C55.028,69.339,53.474,69.381,52.157,68.619z"/>
			<path fill="#FFFFFF" d="M32.629,25.975c-0.236-1.007-0.105-2.102,0.452-3.068c0.585-1.015,1.529-1.695,2.58-1.97l9.031-15.181
				c-0.676,0.083-1.318,0.28-1.907,0.571l-0.741,0.427l-0.168,0.096L13.47,23.243l-4.558-2.631v13.285l14.068,8.122L32.629,25.975z"
				/>
			<polygon fill="#FFFFFF" points="65.51,46.506 46.175,35.345 46.175,55.411 48.479,56.741 			"/>
			<path fill="#FFFFFF" d="M38.85,21.359l5.921,3.418V6.988l-8.278,13.826C37.29,20.765,38.108,20.931,38.85,21.359z"/>
			<polygon fill="#FFFFFF" points="46.175,7.052 46.175,25.589 63.11,35.366 			"/>
			<path fill="#FFFFFF" d="M32.917,26.788L23.59,42.373l1.057,0.607l20.125-8.272v-0.174l-10.146-5.857
				C33.843,28.223,33.27,27.551,32.917,26.788z"/>
			<polygon fill="#FFFFFF" points="44.771,54.6 44.771,35.473 25.41,43.421 			"/>
			<path fill="#FFFFFF" d="M10.813,44.749l-0.077,0.046l-0.02,0.012l-0.002,16.527c-0.002,0.077-0.012,0.153-0.012,0.23
				c0,0.076,0.01,0.152,0.012,0.229c0.076,2.006,1.137,3.757,2.717,4.783l0.525,0.303l27.993,16.168l0.094,0.055
				c0.315,0.227,0.657,0.424,1.015,0.587c0.498,0.226,1.032,0.382,1.588,0.463L21.654,51.009L10.813,44.749z"/>
			<path fill="#FFFFFF" d="M49.177,57.145l4.791,2.766l15.474-8.924l-18.09,25.977l-5.009,7.195c0.715-0.1,1.391-0.319,2.001-0.648
				l0.091-0.051l0.717-0.415l28.33-16.351l4.552,2.627V56.047l-15.828-9.139L49.177,57.145z"/>
			<polygon fill="#FFFFFF" points="44.771,83.098 44.771,64.344 23.074,51.816 			"/>
		</g>
		<g opacity="0.1">
			<path d="M67.067,53.167L54.67,60.316c0.512,0.296,1.98,1.154,2.076,1.225l0.308,0.177c0.834,0.733,1.352,1.774,1.423,2.89h-0.001
				c0.027,0.317,0.002,0.642-0.046,0.963L67.067,53.167z"/>
			<path d="M52.157,68.619l-5.982-3.453v18.001l10.099-14.502C55.028,69.339,53.474,69.381,52.157,68.619z"/>
			<polygon points="65.51,46.506 46.175,35.345 46.175,55.411 48.479,56.741 			"/>
			<polygon points="46.175,7.052 46.175,25.589 63.11,35.366 			"/>
			<polygon points="44.771,54.6 44.771,35.473 25.41,43.421 			"/>
		</g>
	</g>
</g>
</svg>
