<?xml version="1.0" encoding="utf-8"?>
<!-- Generator: Adobe Illustrator 15.0.0, SVG Export Plug-In . SVG Version: 6.00 Build 0)  -->
<!DOCTYPE svg PUBLIC "-//W3C//DTD SVG 1.1//EN" "http://www.w3.org/Graphics/SVG/1.1/DTD/svg11.dtd">
<svg version="1.1" id="Layer_1" xmlns="http://www.w3.org/2000/svg" xmlns:xlink="http://www.w3.org/1999/xlink" x="0px" y="0px"
	 width="73.7px" height="79.37px" viewBox="0 0 73.7 79.37" enable-background="new 0 0 73.7 79.37" xml:space="preserve">
<g>
	<g>
		<path d="M71.271,40.057l0.079-0.044l0.002-15.991l0.002-1.244c-0.181-1.725-1.105-3.224-2.444-4.183l-0.996-0.575L40.315,2.081
			L39.471,1.59c-0.541-0.255-1.124-0.432-1.738-0.516l17.942,29.98L71.271,40.057z"/>
		<path d="M58.339,47.932l-12.256,7.067c0.505,0.293,1.958,1.141,2.054,1.211l0.304,0.175c0.824,0.725,1.335,1.754,1.406,2.855l0,0
			c0.025,0.315,0.002,0.635-0.047,0.952L58.339,47.932z"/>
		<path d="M43.599,63.207l-5.913-3.413v17.793l9.983-14.335C46.438,63.919,44.9,63.959,43.599,63.207z"/>
		<path d="M24.294,21.051c-0.233-0.996-0.104-2.078,0.448-3.033c0.578-1.003,1.51-1.676,2.549-1.948l8.927-15.007
			c-0.667,0.082-1.302,0.276-1.885,0.564l-0.731,0.422l-0.167,0.095L5.355,18.35l-4.506-2.6v13.132l13.908,8.029L24.294,21.051z"/>
		<polygon points="56.799,41.347 37.686,30.313 37.686,50.149 39.965,51.465 		"/>
		<path d="M30.445,16.488l5.854,3.379V2.281l-8.183,13.667C28.902,15.901,29.711,16.065,30.445,16.488z"/>
		<polygon points="37.686,2.344 37.686,20.669 54.427,30.334 		"/>
		<path d="M24.58,21.854l-9.22,15.407l1.044,0.6l19.894-8.177v-0.172L26.27,23.721C25.496,23.273,24.929,22.608,24.58,21.854z"/>
		<polygon points="36.298,49.348 36.298,30.44 17.158,38.297 		"/>
		<path d="M2.729,39.609l-0.077,0.045l-0.021,0.012L2.63,56.005c-0.002,0.076-0.011,0.151-0.011,0.228s0.009,0.151,0.011,0.227
			c0.075,1.982,1.125,3.713,2.686,4.729l0.52,0.3L33.509,77.47l0.093,0.054c0.312,0.224,0.649,0.418,1.004,0.58
			c0.492,0.224,1.02,0.377,1.57,0.458L13.447,45.798L2.729,39.609z"/>
		<path d="M40.652,51.863l4.737,2.733l15.297-8.821L42.803,71.456l-4.95,7.112c0.706-0.1,1.374-0.315,1.978-0.641l0.09-0.051
			l0.709-0.41l28.006-16.164l4.498,2.597v-13.12l-15.646-9.035L40.652,51.863z"/>
		<polygon points="36.298,77.52 36.298,58.98 14.849,46.596 		"/>
	</g>
	<g opacity="0.1">
		<path fill="#FFFFFF" d="M30.445,16.488l5.854,3.379V2.281l-8.183,13.667C28.902,15.901,29.711,16.065,30.445,16.488z"/>
		<path fill="#FFFFFF" d="M24.58,21.854l-9.22,15.407l1.044,0.6l19.894-8.177v-0.172L26.27,23.721
			C25.496,23.273,24.929,22.608,24.58,21.854z"/>
		<polygon fill="#FFFFFF" points="36.298,77.52 36.298,58.98 14.849,46.596 		"/>
	</g>
</g>
</svg>
