<?xml version="1.0" encoding="utf-8"?>
<!-- Generator: Adobe Illustrator 22.1.0, SVG Export Plug-In . SVG Version: 6.00 Build 0)  -->
<svg version="1.1" id="Layer_1" xmlns="http://www.w3.org/2000/svg" xmlns:xlink="http://www.w3.org/1999/xlink" x="0px" y="0px"
	 width="20px" height="20px" viewBox="0 0 20 20" style="enable-background:new 0 0 20 20;" xml:space="preserve">
<style type="text/css">
	.st0{fill:#DCDCDC;}
</style>
<g>
	<path class="st0" d="M10,19.9c-0.5,0-0.9-0.1-1.3-0.4l-6.3-3.6c-0.8-0.5-1.3-1.3-1.3-2.3V8.8l9.8,5.6c0.2,0.1,0.4,0,0.6-0.1
		c0.1-0.2,0-0.4-0.1-0.6L1.1,7.8V2.6L3,3.7l5.7-3.3c0.8-0.5,1.8-0.5,2.6,0l6.3,3.6c0.8,0.5,1.3,1.3,1.3,2.3v4.8L9.1,5.6
		C9,5.5,8.9,5.5,8.8,5.5c-0.1,0-0.2,0.1-0.2,0.2C8.5,5.8,8.5,5.9,8.5,6c0,0.1,0.1,0.2,0.2,0.2l10.2,5.9v5.2L17,16.3l-5.7,3.3
		C10.9,19.8,10.5,19.9,10,19.9z M2.8,11.8v1.8c0,0.3,0.2,0.6,0.4,0.8L9.6,18c0.3,0.2,0.6,0.2,0.9,0l6.5-3.8l0.2,0.1v-1.2L7.8,7.8
		C6.8,7.2,6.4,5.9,7,4.8c0.3-0.5,0.8-0.9,1.3-1S9.5,3.8,10,4l7.2,4.1V6.4c0-0.3-0.2-0.6-0.4-0.8L10.4,2c-0.3-0.2-0.6-0.2-0.9,0
		L3,5.8L2.8,5.7v1.2l9.3,5.4c1,0.6,1.4,1.9,0.8,2.9c-0.6,1-1.9,1.4-2.9,0.8L2.8,11.8z"/>
</g>
</svg>
