<?xml version="1.0" encoding="utf-8"?>
<!-- Generator: Adobe Illustrator 22.1.0, SVG Export Plug-In . SVG Version: 6.00 Build 0)  -->
<svg version="1.1" id="Layer_1" xmlns="http://www.w3.org/2000/svg" xmlns:xlink="http://www.w3.org/1999/xlink" x="0px" y="0px"
	 width="20px" height="20px" viewBox="0 0 20 20" style="enable-background:new 0 0 20 20;" xml:space="preserve">
<style type="text/css">
	.st0{fill:#DCDCDC;}
</style>
<g>
	<path class="st0" d="M10,15.2c-0.2,0-0.5-0.1-0.7-0.2L6,13.1c-0.4-0.2-0.7-0.7-0.7-1.2V9.3l5.2,3c0.1,0.1,0.2,0,0.3-0.1
		c0.1-0.1,0-0.2-0.1-0.3L5.3,8.9V6.1l1,0.6l3-1.7c0.4-0.2,1-0.2,1.4,0L14,6.9c0.4,0.2,0.7,0.7,0.7,1.2v2.5l-5.2-3
		c-0.1,0-0.1,0-0.2,0c0,0-0.1,0-0.1,0.1c0,0.1,0,0.1,0,0.2c0,0,0,0.1,0.1,0.1l5.4,3.1v2.8l-1-0.6l-3,1.7
		C10.5,15.1,10.2,15.2,10,15.2z M6.2,10.9v1c0,0.2,0.1,0.3,0.2,0.4l3.3,1.9c0.1,0.1,0.3,0.1,0.5,0l3.4-2l0.1,0.1v-0.6L8.9,8.8
		c-0.5-0.3-0.7-1-0.4-1.5C8.6,7,8.8,6.8,9.1,6.8c0.3-0.1,0.6,0,0.9,0.1L13.8,9V8.1c0-0.2-0.1-0.3-0.2-0.4l-3.3-1.9
		c-0.1-0.1-0.3-0.1-0.5,0l-3.4,2L6.2,7.7v0.6l4.9,2.8c0.5,0.3,0.7,1,0.4,1.5c-0.3,0.5-1,0.7-1.5,0.4L6.2,10.9z"/>
</g>
<g>
	<path class="st0" d="M10,20C4.5,20,0,15.5,0,10S4.5,0,10,0c5.5,0,10,4.5,10,10S15.5,20,10,20z M10,1C5,1,1,5,1,10s4.1,9,9,9
		c5,0,9-4.1,9-9S15,1,10,1z"/>
</g>
</svg>
