<?xml version="1.0" encoding="utf-8"?>
<!-- Generator: Adobe Illustrator 22.1.0, SVG Export Plug-In . SVG Version: 6.00 Build 0)  -->
<svg version="1.1" id="Layer_1" xmlns="http://www.w3.org/2000/svg" xmlns:xlink="http://www.w3.org/1999/xlink" x="0px" y="0px"
	 width="500px" height="500px" viewBox="0 0 500 500" style="enable-background:new 0 0 500 500;" xml:space="preserve">
<style type="text/css">
	.st0{fill:#7669A1;}
	.st1{fill:#FFFFFF;}
</style>
<g>
	<path class="st0" d="M334.6,497.5H165.4c-89.6,0-162.9-73.3-162.9-162.9V165.4C2.5,75.8,75.8,2.5,165.4,2.5h169.1
		c89.6,0,162.9,73.3,162.9,162.9v169.1C497.5,424.2,424.2,497.5,334.6,497.5z"/>
	<g>
		<path class="st1" d="M250,376.6c-4.9,0-9.8-1.3-14.1-3.8l-85.1-49.2c-8.7-5-14.1-14.4-14.1-24.4V246l122,70.2
			c6,3.4,14.2,1.2,17.6-4.7c3.5-6.1,1.4-14-4.7-17.6l-134.9-77.6v-53.4l18.9,10.9l80.4-46.5c8.7-5,19.5-5,28.2,0l85.2,49.2
			c8.7,5,14.1,14.4,14.1,24.4v52.7l-121.8-70.3c-6.1-3.5-14-1.4-17.6,4.7c-3.5,6.1-1.4,14,4.7,17.6l134.6,77.7v54l-18.8-10.9
			l-80.4,46.4C259.8,375.3,254.9,376.6,250,376.6z M145.5,261.3v37.8c0,6.9,3.7,13.3,9.7,16.8l85.1,49.2c6,3.4,13.4,3.4,19.3,0
			l84.9-49l10,5.8v-33.4l-130.2-75.1c-10.4-6-14-19.3-8-29.7c6-10.4,19.3-14,29.7-8l108.5,62.6v-37.3c0-6.9-3.7-13.3-9.7-16.8
			l-85.1-49.2c-6-3.4-13.4-3.4-19.4,0L155.5,184l-10-5.8v32.8l130.4,75.1c10.4,6,14,19.4,8,29.7c-5.8,10-19.6,13.8-29.7,8
			L145.5,261.3z"/>
	</g>
</g>
</svg>
