<?xml version="1.0" encoding="utf-8"?>
<!-- Generator: Adobe Illustrator 15.0.0, SVG Export Plug-In . SVG Version: 6.00 Build 0)  -->
<!DOCTYPE svg PUBLIC "-//W3C//DTD SVG 1.1//EN" "http://www.w3.org/Graphics/SVG/1.1/DTD/svg11.dtd">
<svg version="1.1" id="Layer_1" xmlns="http://www.w3.org/2000/svg" xmlns:xlink="http://www.w3.org/1999/xlink" x="0px" y="0px"
	 width="405.35px" height="79.37px" viewBox="0 0 405.35 79.37" enable-background="new 0 0 405.35 79.37" xml:space="preserve">
<g>
	<g>
		<linearGradient id="SVGID_1_" gradientUnits="userSpaceOnUse" x1="103.8247" y1="40.6514" x2="398.9698" y2="40.6514">
			<stop  offset="0" style="stop-color:#64C4AA"/>
			<stop  offset="0.5" style="stop-color:#67A3D8"/>
			<stop  offset="1" style="stop-color:#8A76B6"/>
		</linearGradient>
		<path fill="url(#SVGID_1_)" d="M111.549,28.142c-2.297,0-4.054,1.085-5.277,3.255c-1.221,2.168-1.833,5.314-1.833,9.432
			c0,3.881,0.685,6.908,2.054,9.075c1.37,2.171,3.331,3.257,5.878,3.257c1.703,0,3.325-0.48,4.866-1.444v-2.045
			c-1.672,0.994-3.266,1.489-4.777,1.489c-1.955,0-3.415-0.871-4.376-2.619c-0.964-1.749-1.46-4.38-1.49-7.891h11.421v-1.955
			c0-3.229-0.578-5.796-1.733-7.698C115.126,29.094,113.55,28.142,111.549,28.142z M106.638,38.741
			c0.281-5.792,1.875-8.688,4.778-8.688c1.377,0,2.471,0.784,3.278,2.355c0.807,1.57,1.212,3.682,1.212,6.333H106.638z"/>
		<linearGradient id="SVGID_2_" gradientUnits="userSpaceOnUse" x1="103.8232" y1="38.0186" x2="399.0021" y2="38.0186">
			<stop  offset="0" style="stop-color:#64C4AA"/>
			<stop  offset="0.5" style="stop-color:#67A3D8"/>
			<stop  offset="1" style="stop-color:#8A76B6"/>
		</linearGradient>
		<path fill="url(#SVGID_2_)" d="M139.895,50.315c-0.354-0.59-0.532-1.701-0.532-3.331v-16.51h3.823v-1.866h-3.823v-5.733h-1.467
			l-0.688,5.733l-2.134,0.623v1.244h2.177v17.111c0,3.717,1.246,5.575,3.733,5.575c1.022,0,1.86-0.149,2.511-0.443V50.94
			c-0.503,0.176-1.082,0.266-1.734,0.266C140.873,51.206,140.252,50.909,139.895,50.315z"/>
		<linearGradient id="SVGID_3_" gradientUnits="userSpaceOnUse" x1="103.8193" y1="35.4297" x2="399.0142" y2="35.4297">
			<stop  offset="0" style="stop-color:#64C4AA"/>
			<stop  offset="0.5" style="stop-color:#67A3D8"/>
			<stop  offset="1" style="stop-color:#8A76B6"/>
		</linearGradient>
		<path fill="url(#SVGID_3_)" d="M168.622,28.142c-1.038,0-2.033,0.329-2.989,0.988c-0.956,0.659-1.67,1.589-2.145,2.789h-0.178
			c0.058-0.682,0.089-1.533,0.089-2.555V18.142h-2.111v34.576h2.111V39.519c0-3.26,0.43-5.644,1.289-7.156
			c0.858-1.51,2.141-2.266,3.844-2.266c1.289,0,2.218,0.455,2.788,1.366c0.571,0.911,0.857,2.456,0.857,4.633v16.622h2.088V36.096
			c0-2.637-0.429-4.623-1.289-5.956C172.117,28.808,170.666,28.142,168.622,28.142z"/>
		<linearGradient id="SVGID_4_" gradientUnits="userSpaceOnUse" x1="103.8164" y1="40.6514" x2="399.0146" y2="40.6514">
			<stop  offset="0" style="stop-color:#64C4AA"/>
			<stop  offset="0.5" style="stop-color:#67A3D8"/>
			<stop  offset="1" style="stop-color:#8A76B6"/>
		</linearGradient>
		<path fill="url(#SVGID_4_)" d="M200.612,28.142c-2.297,0-4.055,1.085-5.278,3.255c-1.221,2.168-1.833,5.314-1.833,9.432
			c0,3.881,0.685,6.908,2.057,9.075c1.369,2.171,3.328,3.257,5.875,3.257c1.703,0,3.327-0.48,4.867-1.444v-2.045
			c-1.674,0.994-3.265,1.489-4.778,1.489c-1.955,0-3.413-0.871-4.376-2.619c-0.964-1.749-1.459-4.38-1.49-7.891h11.423v-1.955
			c0-3.229-0.58-5.796-1.734-7.698C204.188,29.094,202.612,28.142,200.612,28.142z M195.701,38.741
			c0.282-5.792,1.875-8.688,4.778-8.688c1.376,0,2.47,0.784,3.277,2.355c0.807,1.57,1.212,3.682,1.212,6.333H195.701z"/>
		<linearGradient id="SVGID_5_" gradientUnits="userSpaceOnUse" x1="103.8252" y1="40.4297" x2="398.9924" y2="40.4297">
			<stop  offset="0" style="stop-color:#64C4AA"/>
			<stop  offset="0.5" style="stop-color:#67A3D8"/>
			<stop  offset="1" style="stop-color:#8A76B6"/>
		</linearGradient>
		<path fill="url(#SVGID_5_)" d="M228.516,32.83h-0.156l-0.222-4.222h-1.735v24.109h2.113V39.941c0-1.807,0.198-3.46,0.597-4.957
			c0.4-1.494,0.954-2.662,1.656-3.5c0.705-0.836,1.464-1.254,2.278-1.254c0.563,0,1.111,0.111,1.644,0.333l0.511-2.111
			c-0.65-0.207-1.354-0.31-2.107-0.31C231.166,28.142,229.639,29.705,228.516,32.83z"/>
		<linearGradient id="SVGID_6_" gradientUnits="userSpaceOnUse" x1="103.8179" y1="40.6514" x2="399.0002" y2="40.6514">
			<stop  offset="0" style="stop-color:#64C4AA"/>
			<stop  offset="0.5" style="stop-color:#67A3D8"/>
			<stop  offset="1" style="stop-color:#8A76B6"/>
		</linearGradient>
		<path fill="url(#SVGID_6_)" d="M257.352,30.141c1.363,0,2.65,0.409,3.864,1.223l1.09-1.844c-1.304-0.918-2.926-1.377-4.866-1.377
			c-1.807,0-3.295,0.567-4.468,1.7c-1.169,1.132-1.755,2.566-1.755,4.299c0,1.065,0.166,1.984,0.5,2.755
			c0.334,0.77,0.802,1.465,1.4,2.088c0.602,0.622,1.721,1.451,3.366,2.488c1.438,0.933,2.41,1.767,2.923,2.498
			c0.51,0.734,0.766,1.634,0.766,2.701c0,1.362-0.357,2.451-1.064,3.266c-0.714,0.815-1.691,1.223-2.936,1.223
			c-0.945,0-1.874-0.167-2.778-0.5c-0.901-0.334-1.629-0.772-2.177-1.321v2.465c0.46,0.343,1.104,0.654,1.935,0.934
			c0.829,0.281,1.793,0.423,2.888,0.423c2.016,0,3.555-0.573,4.621-1.723c1.066-1.146,1.599-2.737,1.599-4.766
			c0-0.99-0.143-1.871-0.431-2.632c-0.288-0.763-0.73-1.459-1.322-2.091c-0.593-0.629-1.688-1.468-3.287-2.521
			c-1.63-1.021-2.698-1.892-3.202-2.61c-0.505-0.717-0.756-1.611-0.756-2.677c0-1.2,0.369-2.167,1.112-2.901
			C255.113,30.508,256.105,30.141,257.352,30.141z"/>
		<linearGradient id="SVGID_7_" gradientUnits="userSpaceOnUse" x1="103.8418" y1="40.6514" x2="398.9859" y2="40.6514">
			<stop  offset="0" style="stop-color:#64C4AA"/>
			<stop  offset="0.5" style="stop-color:#67A3D8"/>
			<stop  offset="1" style="stop-color:#8A76B6"/>
		</linearGradient>
		<path fill="url(#SVGID_7_)" d="M287.34,28.142c-4.916,0-7.374,4.155-7.374,12.465c0,4.058,0.623,7.166,1.875,9.32
			c1.252,2.156,3.055,3.233,5.412,3.233c2.383,0,4.217-1.077,5.499-3.233c1.283-2.154,1.922-5.263,1.922-9.32
			c0-3.956-0.643-7.021-1.934-9.2C291.453,29.231,289.651,28.142,287.34,28.142z M287.299,51.161c-1.765,0-3.062-0.888-3.892-2.665
			c-0.827-1.779-1.241-4.406-1.241-7.889c0-3.48,0.402-6.097,1.21-7.845c0.807-1.748,2.113-2.622,3.923-2.622
			c3.45,0,5.175,3.489,5.175,10.467C292.474,47.644,290.749,51.161,287.299,51.161z"/>
		<linearGradient id="SVGID_8_" gradientUnits="userSpaceOnUse" x1="103.7988" y1="40.6514" x2="399.0069" y2="40.6514">
			<stop  offset="0" style="stop-color:#64C4AA"/>
			<stop  offset="0.5" style="stop-color:#67A3D8"/>
			<stop  offset="1" style="stop-color:#8A76B6"/>
		</linearGradient>
		<path fill="url(#SVGID_8_)" d="M320.377,30.141c0.83,0,1.74,0.231,2.732,0.69l0.824-1.867c-0.994-0.548-2.238-0.822-3.734-0.822
			c-2.416,0-4.24,1.077-5.479,3.232c-1.236,2.155-1.854,5.292-1.854,9.41c0,4.06,0.61,7.135,1.833,9.234
			c1.222,2.094,3.043,3.143,5.456,3.143c0.52,0,1.131-0.073,1.844-0.223c0.712-0.147,1.311-0.354,1.801-0.62V50.54
			c-1.23,0.473-2.372,0.709-3.423,0.709c-3.542,0-5.311-3.503-5.311-10.508C315.066,33.674,316.835,30.141,320.377,30.141z"/>
		<linearGradient id="SVGID_9_" gradientUnits="userSpaceOnUse" x1="103.9063" y1="21.9082" x2="398.9771" y2="21.9082">
			<stop  offset="0" style="stop-color:#64C4AA"/>
			<stop  offset="0.5" style="stop-color:#67A3D8"/>
			<stop  offset="1" style="stop-color:#8A76B6"/>
		</linearGradient>
		<path fill="url(#SVGID_9_)" d="M343.191,19.809c-0.43,0-0.781,0.186-1.056,0.555c-0.272,0.371-0.41,0.889-0.41,1.555
			c0,0.638,0.138,1.144,0.41,1.523c0.274,0.377,0.626,0.565,1.056,0.565c0.4,0,0.717-0.188,0.956-0.565
			c0.236-0.379,0.354-0.885,0.354-1.523c0-0.666-0.118-1.184-0.354-1.555C343.908,19.995,343.592,19.809,343.191,19.809z"/>
		<linearGradient id="SVGID_10_" gradientUnits="userSpaceOnUse" x1="103.6108" y1="40.6631" x2="399.0457" y2="40.6631">
			<stop  offset="0" style="stop-color:#64C4AA"/>
			<stop  offset="0.5" style="stop-color:#67A3D8"/>
			<stop  offset="1" style="stop-color:#8A76B6"/>
		</linearGradient>
		<rect x="342.034" y="28.608" fill="url(#SVGID_10_)" width="2.113" height="24.109"/>
		<linearGradient id="SVGID_11_" gradientUnits="userSpaceOnUse" x1="103.8247" y1="40.6514" x2="398.9955" y2="40.6514">
			<stop  offset="0" style="stop-color:#64C4AA"/>
			<stop  offset="0.5" style="stop-color:#67A3D8"/>
			<stop  offset="1" style="stop-color:#8A76B6"/>
		</linearGradient>
		<path fill="url(#SVGID_11_)" d="M370.027,28.142c-1.838,0-3.594,0.518-5.267,1.555l0.912,1.667
			c1.435-0.903,2.844-1.355,4.222-1.355c1.303,0,2.235,0.515,2.799,1.544c0.563,1.03,0.846,2.671,0.846,4.92v2.001l-2.602,0.133
			c-2.488,0.118-4.419,0.848-5.799,2.188c-1.378,1.342-2.067,3.16-2.067,5.457c0,2.103,0.479,3.781,1.437,5.031
			c0.953,1.253,2.214,1.878,3.786,1.878c2.34,0,4.088-1.273,5.245-3.821h0.087l0.268,3.378h1.732V36.296
			c0-2.933-0.438-5.025-1.309-6.276C373.44,28.768,372.012,28.142,370.027,28.142z M373.539,42.807c0,2.726-0.418,4.832-1.256,6.321
			c-0.838,1.488-2.012,2.235-3.523,2.235c-1.066,0-1.912-0.409-2.531-1.224c-0.625-0.814-0.934-2.097-0.934-3.845
			c0-1.866,0.469-3.283,1.41-4.255c0.94-0.97,2.382-1.507,4.322-1.61l2.512-0.133V42.807z"/>
		<linearGradient id="SVGID_12_" gradientUnits="userSpaceOnUse" x1="103.6987" y1="35.4297" x2="398.997" y2="35.4297">
			<stop  offset="0" style="stop-color:#64C4AA"/>
			<stop  offset="0.5" style="stop-color:#67A3D8"/>
			<stop  offset="1" style="stop-color:#8A76B6"/>
		</linearGradient>
		<rect x="395.951" y="18.142" fill="url(#SVGID_12_)" width="2.112" height="34.576"/>
	</g>
	<g>
		<g>
			<linearGradient id="SVGID_13_" gradientUnits="userSpaceOnUse" x1="5.73" y1="20.3052" x2="81.0237" y2="20.3052">
				<stop  offset="0" style="stop-color:#64C4AA"/>
				<stop  offset="0.5" style="stop-color:#67A3D8"/>
				<stop  offset="1" style="stop-color:#8A76B6"/>
			</linearGradient>
			<path fill="url(#SVGID_13_)" d="M77.932,39.971l0.082-0.045l0.002-16.134l0.002-1.255c-0.182-1.74-1.115-3.253-2.466-4.22
				l-1.004-0.581L46.701,1.655l-0.853-0.496c-0.545-0.257-1.135-0.435-1.753-0.52l18.102,30.248L77.932,39.971z"/>
			<linearGradient id="SVGID_14_" gradientUnits="userSpaceOnUse" x1="5.7227" y1="54.1006" x2="81.0253" y2="54.1006">
				<stop  offset="0" style="stop-color:#64C4AA"/>
				<stop  offset="0.5" style="stop-color:#67A3D8"/>
				<stop  offset="1" style="stop-color:#8A76B6"/>
			</linearGradient>
			<path fill="url(#SVGID_14_)" d="M64.886,47.915l-12.365,7.131c0.51,0.296,1.975,1.153,2.072,1.222l0.306,0.178
				c0.832,0.731,1.347,1.77,1.419,2.883l0,0c0.027,0.314,0.001,0.64-0.047,0.958L64.886,47.915z"/>
			<linearGradient id="SVGID_15_" gradientUnits="userSpaceOnUse" x1="5.7266" y1="68.8594" x2="81.023" y2="68.8594">
				<stop  offset="0" style="stop-color:#64C4AA"/>
				<stop  offset="0.5" style="stop-color:#67A3D8"/>
				<stop  offset="1" style="stop-color:#8A76B6"/>
			</linearGradient>
			<path fill="url(#SVGID_15_)" d="M50.015,63.329l-5.967-3.446v17.954L54.12,63.375C52.877,64.048,51.327,64.087,50.015,63.329z"/>
			<linearGradient id="SVGID_16_" gradientUnits="userSpaceOnUse" x1="5.7285" y1="18.7119" x2="81.0198" y2="18.7119">
				<stop  offset="0" style="stop-color:#64C4AA"/>
				<stop  offset="0.5" style="stop-color:#67A3D8"/>
				<stop  offset="1" style="stop-color:#8A76B6"/>
			</linearGradient>
			<path fill="url(#SVGID_16_)" d="M30.537,20.794c-0.236-1.004-0.106-2.096,0.451-3.061c0.583-1.012,1.524-1.69,2.572-1.964
				l9.006-15.143c-0.674,0.083-1.313,0.28-1.902,0.57l-0.738,0.426l-0.169,0.096L11.428,18.069l-4.545-2.624v13.251l14.032,8.1
				L30.537,20.794z"/>
			<linearGradient id="SVGID_17_" gradientUnits="userSpaceOnUse" x1="5.7261" y1="40.811" x2="81.0238" y2="40.811">
				<stop  offset="0" style="stop-color:#64C4AA"/>
				<stop  offset="0.5" style="stop-color:#67A3D8"/>
				<stop  offset="1" style="stop-color:#8A76B6"/>
			</linearGradient>
			<polygon fill="url(#SVGID_17_)" points="63.332,41.273 44.047,30.14 44.047,50.155 46.347,51.482 			"/>
			<linearGradient id="SVGID_18_" gradientUnits="userSpaceOnUse" x1="5.7222" y1="10.729" x2="81.0324" y2="10.729">
				<stop  offset="0" style="stop-color:#64C4AA"/>
				<stop  offset="0.5" style="stop-color:#67A3D8"/>
				<stop  offset="1" style="stop-color:#8A76B6"/>
			</linearGradient>
			<path fill="url(#SVGID_18_)" d="M36.742,16.191l5.906,3.41V1.857l-8.256,13.789C35.186,15.599,36.003,15.765,36.742,16.191z"/>
			<linearGradient id="SVGID_19_" gradientUnits="userSpaceOnUse" x1="5.7251" y1="16.0415" x2="81.0243" y2="16.0415">
				<stop  offset="0" style="stop-color:#64C4AA"/>
				<stop  offset="0.5" style="stop-color:#67A3D8"/>
				<stop  offset="1" style="stop-color:#8A76B6"/>
			</linearGradient>
			<polygon fill="url(#SVGID_19_)" points="44.047,1.921 44.047,20.41 60.938,30.162 			"/>
			<linearGradient id="SVGID_20_" gradientUnits="userSpaceOnUse" x1="5.7285" y1="29.6807" x2="81.0263" y2="29.6807">
				<stop  offset="0" style="stop-color:#64C4AA"/>
				<stop  offset="0.5" style="stop-color:#67A3D8"/>
				<stop  offset="1" style="stop-color:#8A76B6"/>
			</linearGradient>
			<path fill="url(#SVGID_20_)" d="M30.825,21.605l-9.302,15.544l1.054,0.606l20.072-8.25v-0.175l-10.119-5.842
				C31.749,23.038,31.176,22.367,30.825,21.605z"/>
			<linearGradient id="SVGID_21_" gradientUnits="userSpaceOnUse" x1="5.7256" y1="39.8066" x2="81.0291" y2="39.8066">
				<stop  offset="0" style="stop-color:#64C4AA"/>
				<stop  offset="0.5" style="stop-color:#67A3D8"/>
				<stop  offset="1" style="stop-color:#8A76B6"/>
			</linearGradient>
			<polygon fill="url(#SVGID_21_)" points="42.648,49.346 42.648,30.268 23.336,38.196 			"/>
			<linearGradient id="SVGID_22_" gradientUnits="userSpaceOnUse" x1="5.7285" y1="59.1699" x2="81.0225" y2="59.1699">
				<stop  offset="0" style="stop-color:#64C4AA"/>
				<stop  offset="0.5" style="stop-color:#67A3D8"/>
				<stop  offset="1" style="stop-color:#8A76B6"/>
			</linearGradient>
			<path fill="url(#SVGID_22_)" d="M8.779,39.52l-0.078,0.045l-0.021,0.013L8.679,56.063c-0.002,0.076-0.011,0.153-0.011,0.229
				c0,0.077,0.009,0.153,0.011,0.228c0.075,2.003,1.135,3.749,2.709,4.772l0.525,0.303l27.92,16.124l0.094,0.057
				c0.315,0.225,0.655,0.422,1.012,0.583c0.497,0.227,1.029,0.381,1.584,0.463L19.591,45.763L8.779,39.52z"/>
			<linearGradient id="SVGID_23_" gradientUnits="userSpaceOnUse" x1="5.7305" y1="60.251" x2="81.0228" y2="60.251">
				<stop  offset="0" style="stop-color:#64C4AA"/>
				<stop  offset="0.5" style="stop-color:#67A3D8"/>
				<stop  offset="1" style="stop-color:#8A76B6"/>
			</linearGradient>
			<path fill="url(#SVGID_23_)" d="M47.042,51.884l4.779,2.757l15.434-8.9L49.211,71.65l-4.996,7.177
				c0.712-0.099,1.386-0.319,1.996-0.646l0.091-0.052l0.714-0.415l28.257-16.308l4.538,2.621V50.789l-15.786-9.114L47.042,51.884z"
				/>
			<linearGradient id="SVGID_24_" gradientUnits="userSpaceOnUse" x1="5.7251" y1="62.1699" x2="81.0296" y2="62.1699">
				<stop  offset="0" style="stop-color:#64C4AA"/>
				<stop  offset="0.5" style="stop-color:#67A3D8"/>
				<stop  offset="1" style="stop-color:#8A76B6"/>
			</linearGradient>
			<polygon fill="url(#SVGID_24_)" points="42.648,77.771 42.648,59.064 21.006,46.568 			"/>
		</g>
		<g opacity="0.1">
			<path fill="#363B59" d="M64.886,47.915l-12.365,7.131c0.51,0.296,1.975,1.153,2.072,1.222l0.306,0.178
				c0.832,0.731,1.347,1.77,1.419,2.883l0,0c0.027,0.314,0.001,0.64-0.047,0.958L64.886,47.915z"/>
			<path fill="#363B59" d="M50.015,63.329l-5.967-3.446v17.954L54.12,63.375C52.877,64.048,51.327,64.087,50.015,63.329z"/>
			<polygon fill="#363B59" points="63.332,41.273 44.047,30.14 44.047,50.155 46.347,51.482 			"/>
			<path fill="#FFFFFF" d="M36.742,16.191l5.906,3.41V1.857l-8.256,13.789C35.186,15.599,36.003,15.765,36.742,16.191z"/>
			<polygon fill="#363B59" points="44.047,1.921 44.047,20.41 60.938,30.162 			"/>
			<path fill="#FFFFFF" d="M30.825,21.605l-9.302,15.544l1.054,0.606l20.072-8.25v-0.175l-10.119-5.842
				C31.749,23.038,31.176,22.367,30.825,21.605z"/>
			<polygon fill="#363B59" points="42.648,49.346 42.648,30.268 23.336,38.196 			"/>
			<polygon fill="#FFFFFF" points="42.648,77.771 42.648,59.064 21.006,46.568 			"/>
		</g>
	</g>
</g>
</svg>
