<?xml version="1.0" encoding="utf-8"?>
<!-- Generator: Adobe Illustrator 15.0.0, SVG Export Plug-In . SVG Version: 6.00 Build 0)  -->
<!DOCTYPE svg PUBLIC "-//W3C//DTD SVG 1.1//EN" "http://www.w3.org/Graphics/SVG/1.1/DTD/svg11.dtd">
<svg version="1.1" id="Layer_1" xmlns="http://www.w3.org/2000/svg" xmlns:xlink="http://www.w3.org/1999/xlink" x="0px" y="0px"
	 width="130.39px" height="138.9px" viewBox="0 0 130.39 138.9" enable-background="new 0 0 130.39 138.9" xml:space="preserve">
<g>
	<g>
		<linearGradient id="SVGID_1_" gradientUnits="userSpaceOnUse" x1="-0.605" y1="35.6924" x2="131.0918" y2="35.6924">
			<stop  offset="0" style="stop-color:#64C4AA"/>
			<stop  offset="0.5" style="stop-color:#67A3D8"/>
			<stop  offset="1" style="stop-color:#8A76B6"/>
		</linearGradient>
		<path fill="url(#SVGID_1_)" d="M125.686,70.09l0.142-0.081l0.005-28.221l0.001-2.193c-0.318-3.044-1.949-5.69-4.313-7.382
			l-1.758-1.015L71.06,3.068l-1.491-0.862c-0.953-0.453-1.982-0.765-3.068-0.912l31.662,52.905L125.686,70.09z"/>
		<linearGradient id="SVGID_2_" gradientUnits="userSpaceOnUse" x1="-0.6025" y1="94.8027" x2="131.0909" y2="94.8027">
			<stop  offset="0" style="stop-color:#64C4AA"/>
			<stop  offset="0.5" style="stop-color:#67A3D8"/>
			<stop  offset="1" style="stop-color:#8A76B6"/>
		</linearGradient>
		<path fill="url(#SVGID_2_)" d="M102.865,83.983L81.24,96.456c0.89,0.518,3.454,2.014,3.622,2.136l0.534,0.309
			c1.455,1.278,2.358,3.094,2.483,5.041h-0.002c0.049,0.557,0.004,1.119-0.08,1.68L102.865,83.983z"/>
		<linearGradient id="SVGID_3_" gradientUnits="userSpaceOnUse" x1="-0.6021" y1="120.6172" x2="131.091" y2="120.6172">
			<stop  offset="0" style="stop-color:#64C4AA"/>
			<stop  offset="0.5" style="stop-color:#67A3D8"/>
			<stop  offset="1" style="stop-color:#8A76B6"/>
		</linearGradient>
		<path fill="url(#SVGID_3_)" d="M76.856,110.941l-10.436-6.025v31.402l17.617-25.299C81.863,112.197,79.154,112.269,76.856,110.941
			z"/>
		<linearGradient id="SVGID_4_" gradientUnits="userSpaceOnUse" x1="-0.6035" y1="32.9053" x2="131.0926" y2="32.9053">
			<stop  offset="0" style="stop-color:#64C4AA"/>
			<stop  offset="0.5" style="stop-color:#67A3D8"/>
			<stop  offset="1" style="stop-color:#8A76B6"/>
		</linearGradient>
		<path fill="url(#SVGID_4_)" d="M42.788,36.548c-0.41-1.758-0.185-3.668,0.789-5.355c1.021-1.77,2.667-2.954,4.5-3.438
			L63.832,1.273c-1.183,0.144-2.301,0.487-3.328,0.993L59.21,3.014l-0.293,0.17L9.365,31.78l-7.95-4.589v23.176l24.542,14.169
			L42.788,36.548z"/>
		<linearGradient id="SVGID_5_" gradientUnits="userSpaceOnUse" x1="-0.6025" y1="71.5566" x2="131.0914" y2="71.5566">
			<stop  offset="0" style="stop-color:#64C4AA"/>
			<stop  offset="0.5" style="stop-color:#67A3D8"/>
			<stop  offset="1" style="stop-color:#8A76B6"/>
		</linearGradient>
		<polygon fill="url(#SVGID_5_)" points="100.148,72.366 66.421,52.894 66.421,87.899 70.439,90.22 		"/>
		<linearGradient id="SVGID_6_" gradientUnits="userSpaceOnUse" x1="-0.606" y1="18.9414" x2="131.0935" y2="18.9414">
			<stop  offset="0" style="stop-color:#64C4AA"/>
			<stop  offset="0.5" style="stop-color:#67A3D8"/>
			<stop  offset="1" style="stop-color:#8A76B6"/>
		</linearGradient>
		<path fill="url(#SVGID_6_)" d="M53.641,28.496l10.328,5.963V3.423L49.531,27.542C50.92,27.459,52.346,27.75,53.641,28.496z"/>
		<linearGradient id="SVGID_7_" gradientUnits="userSpaceOnUse" x1="-0.6011" y1="28.2324" x2="131.0904" y2="28.2324">
			<stop  offset="0" style="stop-color:#64C4AA"/>
			<stop  offset="0.5" style="stop-color:#67A3D8"/>
			<stop  offset="1" style="stop-color:#8A76B6"/>
		</linearGradient>
		<polygon fill="url(#SVGID_7_)" points="66.421,3.536 66.421,35.874 95.962,52.93 		"/>
		<linearGradient id="SVGID_8_" gradientUnits="userSpaceOnUse" x1="-0.6045" y1="52.0889" x2="131.0922" y2="52.0889">
			<stop  offset="0" style="stop-color:#64C4AA"/>
			<stop  offset="0.5" style="stop-color:#67A3D8"/>
			<stop  offset="1" style="stop-color:#8A76B6"/>
		</linearGradient>
		<path fill="url(#SVGID_8_)" d="M43.292,37.964L27.02,65.152l1.842,1.061l35.106-14.431v-0.306L46.272,41.259
			C44.905,40.47,43.908,39.297,43.292,37.964z"/>
		<linearGradient id="SVGID_9_" gradientUnits="userSpaceOnUse" x1="-0.6025" y1="69.7988" x2="131.0901" y2="69.7988">
			<stop  offset="0" style="stop-color:#64C4AA"/>
			<stop  offset="0.5" style="stop-color:#67A3D8"/>
			<stop  offset="1" style="stop-color:#8A76B6"/>
		</linearGradient>
		<polygon fill="url(#SVGID_9_)" points="63.968,86.483 63.968,53.115 30.196,66.984 		"/>
		<linearGradient id="SVGID_10_" gradientUnits="userSpaceOnUse" x1="-0.604" y1="103.6689" x2="131.0905" y2="103.6689">
			<stop  offset="0" style="stop-color:#64C4AA"/>
			<stop  offset="0.5" style="stop-color:#67A3D8"/>
			<stop  offset="1" style="stop-color:#8A76B6"/>
		</linearGradient>
		<path fill="url(#SVGID_10_)" d="M4.731,69.3l-0.135,0.079l-0.034,0.02L4.557,98.231c-0.005,0.134-0.02,0.267-0.02,0.402
			c0,0.133,0.015,0.265,0.02,0.397c0.132,3.5,1.982,6.557,4.74,8.348l0.915,0.527l48.835,28.205l0.164,0.094
			c0.552,0.396,1.145,0.74,1.772,1.024c0.867,0.393,1.798,0.665,2.771,0.808L23.643,80.219L4.731,69.3z"/>
		<linearGradient id="SVGID_11_" gradientUnits="userSpaceOnUse" x1="-0.6035" y1="105.5566" x2="131.0912" y2="105.5566">
			<stop  offset="0" style="stop-color:#64C4AA"/>
			<stop  offset="0.5" style="stop-color:#67A3D8"/>
			<stop  offset="1" style="stop-color:#8A76B6"/>
		</linearGradient>
		<path fill="url(#SVGID_11_)" d="M71.656,90.923l8.358,4.825l26.995-15.567l-31.559,45.315l-8.739,12.553
			c1.246-0.174,2.426-0.557,3.491-1.13l0.157-0.09l1.253-0.724l49.422-28.523l7.938,4.583V89.009l-27.612-15.943L71.656,90.923z"/>
		<linearGradient id="SVGID_12_" gradientUnits="userSpaceOnUse" x1="-0.6045" y1="108.9141" x2="131.0927" y2="108.9141">
			<stop  offset="0" style="stop-color:#64C4AA"/>
			<stop  offset="0.5" style="stop-color:#67A3D8"/>
			<stop  offset="1" style="stop-color:#8A76B6"/>
		</linearGradient>
		<polygon fill="url(#SVGID_12_)" points="63.968,136.2 63.968,103.484 26.12,81.627 		"/>
	</g>
	<g opacity="0.1">
		<path fill="#363B59" d="M102.865,83.983L81.24,96.456c0.89,0.518,3.454,2.014,3.622,2.136l0.534,0.309
			c1.455,1.278,2.358,3.094,2.483,5.041h-0.002c0.049,0.557,0.004,1.119-0.08,1.68L102.865,83.983z"/>
		<path fill="#363B59" d="M76.856,110.941l-10.436-6.025v31.402l17.617-25.299C81.863,112.197,79.154,112.269,76.856,110.941z"/>
		<polygon fill="#363B59" points="100.148,72.366 66.421,52.894 66.421,87.899 70.439,90.22 		"/>
		<path fill="#FFFFFF" d="M53.641,28.496l10.328,5.963V3.423L49.531,27.542C50.92,27.459,52.346,27.75,53.641,28.496z"/>
		<polygon fill="#363B59" points="66.421,3.536 66.421,35.874 95.962,52.93 		"/>
		<path fill="#FFFFFF" d="M43.292,37.964L27.02,65.152l1.842,1.061l35.106-14.431v-0.306L46.272,41.259
			C44.905,40.47,43.908,39.297,43.292,37.964z"/>
		<polygon fill="#363B59" points="63.968,86.483 63.968,53.115 30.196,66.984 		"/>
		<polygon fill="#FFFFFF" points="63.968,136.2 63.968,103.484 26.12,81.627 		"/>
	</g>
</g>
</svg>
