<?xml version="1.0" encoding="utf-8"?>
<!-- Generator: Adobe Illustrator 15.0.0, SVG Export Plug-In . SVG Version: 6.00 Build 0)  -->
<!DOCTYPE svg PUBLIC "-//W3C//DTD SVG 1.1//EN" "http://www.w3.org/Graphics/SVG/1.1/DTD/svg11.dtd">
<svg version="1.1" id="Layer_1" xmlns="http://www.w3.org/2000/svg" xmlns:xlink="http://www.w3.org/1999/xlink" x="0px" y="0px"
	 width="357.17px" height="215.43px" viewBox="0 0 357.17 215.43" enable-background="new 0 0 357.17 215.43" xml:space="preserve">
<g>
	<g>
		<linearGradient id="SVGID_1_" gradientUnits="userSpaceOnUse" x1="2.249" y1="198.8477" x2="355.5909" y2="198.8477">
			<stop  offset="0" style="stop-color:#64C4AA"/>
			<stop  offset="0.5" style="stop-color:#67A3D8"/>
			<stop  offset="1" style="stop-color:#8A76B6"/>
		</linearGradient>
		<path fill="url(#SVGID_1_)" d="M11.496,183.873c-2.749,0-4.854,1.3-6.317,3.896c-1.463,2.598-2.194,6.362-2.194,11.291
			c0,4.647,0.819,8.27,2.46,10.866c1.641,2.598,3.986,3.896,7.036,3.896c2.039,0,3.981-0.576,5.825-1.729v-2.447
			c-2.003,1.189-3.91,1.782-5.719,1.782c-2.341,0-4.087-1.046-5.24-3.138c-1.152-2.093-1.747-5.241-1.782-9.443h13.672v-2.342
			c0-3.865-0.691-6.937-2.075-9.215C15.779,185.013,13.89,183.873,11.496,183.873z M5.618,196.561
			c0.336-6.934,2.243-10.4,5.719-10.4c1.649,0,2.957,0.939,3.923,2.819s1.45,4.407,1.45,7.581H5.618z"/>
		<linearGradient id="SVGID_2_" gradientUnits="userSpaceOnUse" x1="2.248" y1="195.6953" x2="355.6001" y2="195.6953">
			<stop  offset="0" style="stop-color:#64C4AA"/>
			<stop  offset="0.5" style="stop-color:#67A3D8"/>
			<stop  offset="1" style="stop-color:#8A76B6"/>
		</linearGradient>
		<path fill="url(#SVGID_2_)" d="M45.43,210.419c-0.425-0.71-0.638-2.039-0.638-3.989v-19.764h4.575v-2.234h-4.575v-6.863h-1.756
			l-0.824,6.863l-2.554,0.745v1.489h2.607v20.482c0,4.45,1.489,6.675,4.468,6.675c1.224,0,2.226-0.178,3.006-0.532v-2.127
			c-0.603,0.213-1.294,0.318-2.075,0.318C46.601,211.482,45.856,211.128,45.43,210.419z"/>
		<linearGradient id="SVGID_3_" gradientUnits="userSpaceOnUse" x1="2.2461" y1="192.5977" x2="355.607" y2="192.5977">
			<stop  offset="0" style="stop-color:#64C4AA"/>
			<stop  offset="0.5" style="stop-color:#67A3D8"/>
			<stop  offset="1" style="stop-color:#8A76B6"/>
		</linearGradient>
		<path fill="url(#SVGID_3_)" d="M79.817,183.873c-1.242,0-2.435,0.395-3.578,1.185c-1.144,0.788-2,1.9-2.567,3.337h-0.212
			c0.07-0.815,0.106-1.835,0.106-3.059v-13.433h-2.527v41.388h2.527v-15.8c0-3.9,0.514-6.756,1.543-8.564
			c1.028-1.809,2.562-2.714,4.602-2.714c1.542,0,2.655,0.545,3.338,1.636c0.682,1.091,1.024,2.94,1.024,5.546v19.896h2.5v-19.896
			c0-3.156-0.515-5.532-1.543-7.128C84.001,184.67,82.264,183.873,79.817,183.873z"/>
		<linearGradient id="SVGID_4_" gradientUnits="userSpaceOnUse" x1="2.248" y1="198.8477" x2="355.6005" y2="198.8477">
			<stop  offset="0" style="stop-color:#64C4AA"/>
			<stop  offset="0.5" style="stop-color:#67A3D8"/>
			<stop  offset="1" style="stop-color:#8A76B6"/>
		</linearGradient>
		<path fill="url(#SVGID_4_)" d="M118.113,183.873c-2.749,0-4.854,1.3-6.317,3.896c-1.463,2.598-2.194,6.362-2.194,11.291
			c0,4.647,0.82,8.27,2.46,10.866c1.641,2.598,3.986,3.896,7.036,3.896c2.039,0,3.98-0.576,5.826-1.729v-2.447
			c-2.004,1.189-3.911,1.782-5.72,1.782c-2.34,0-4.087-1.046-5.24-3.138c-1.152-2.093-1.747-5.241-1.782-9.443h13.672v-2.342
			c0-3.865-0.691-6.937-2.075-9.215C122.396,185.013,120.507,183.873,118.113,183.873z M112.234,196.561
			c0.337-6.934,2.243-10.4,5.719-10.4c1.648,0,2.957,0.939,3.923,2.819c0.967,1.88,1.45,4.407,1.45,7.581H112.234z"/>
		<linearGradient id="SVGID_5_" gradientUnits="userSpaceOnUse" x1="2.2485" y1="198.582" x2="355.5975" y2="198.582">
			<stop  offset="0" style="stop-color:#64C4AA"/>
			<stop  offset="0.5" style="stop-color:#67A3D8"/>
			<stop  offset="1" style="stop-color:#8A76B6"/>
		</linearGradient>
		<path fill="url(#SVGID_5_)" d="M151.515,189.485h-0.187l-0.266-5.054h-2.075v28.859h2.527v-15.293
			c0-2.163,0.239-4.142,0.718-5.933s1.139-3.188,1.981-4.189s1.751-1.502,2.727-1.502c0.673,0,1.33,0.132,1.968,0.397l0.612-2.527
			c-0.781-0.247-1.623-0.371-2.527-0.371C154.688,183.873,152.862,185.744,151.515,189.485z"/>
		<linearGradient id="SVGID_6_" gradientUnits="userSpaceOnUse" x1="2.248" y1="198.8477" x2="355.5959" y2="198.8477">
			<stop  offset="0" style="stop-color:#64C4AA"/>
			<stop  offset="0.5" style="stop-color:#67A3D8"/>
			<stop  offset="1" style="stop-color:#8A76B6"/>
		</linearGradient>
		<path fill="url(#SVGID_6_)" d="M186.034,186.267c1.631,0,3.174,0.488,4.628,1.463l1.304-2.208
			c-1.561-1.099-3.503-1.648-5.825-1.648c-2.165,0-3.946,0.678-5.347,2.035c-1.401,1.356-2.102,3.071-2.102,5.146
			c0,1.276,0.2,2.376,0.599,3.298s0.958,1.756,1.676,2.501c0.719,0.744,2.062,1.738,4.03,2.979c1.72,1.116,2.886,2.114,3.498,2.991
			c0.611,0.879,0.917,1.955,0.917,3.233c0,1.631-0.426,2.934-1.276,3.909c-0.852,0.975-2.021,1.463-3.512,1.463
			c-1.135,0-2.243-0.199-3.324-0.599c-1.083-0.399-1.952-0.926-2.608-1.583v2.952c0.55,0.409,1.322,0.781,2.315,1.118
			s2.146,0.505,3.458,0.505c2.411,0,4.256-0.687,5.532-2.062c1.277-1.374,1.915-3.275,1.915-5.704c0-1.188-0.172-2.239-0.518-3.152
			c-0.346-0.914-0.875-1.746-1.583-2.501c-0.71-0.753-2.022-1.759-3.938-3.019c-1.951-1.224-3.228-2.266-3.831-3.125
			c-0.603-0.86-0.904-1.93-0.904-3.206c0-1.438,0.444-2.594,1.331-3.472S184.545,186.267,186.034,186.267z"/>
		<linearGradient id="SVGID_7_" gradientUnits="userSpaceOnUse" x1="2.25" y1="198.8477" x2="355.596" y2="198.8477">
			<stop  offset="0" style="stop-color:#64C4AA"/>
			<stop  offset="0.5" style="stop-color:#67A3D8"/>
			<stop  offset="1" style="stop-color:#8A76B6"/>
		</linearGradient>
		<path fill="url(#SVGID_7_)" d="M221.936,183.873c-5.887,0-8.83,4.975-8.83,14.922c0,4.859,0.748,8.579,2.246,11.158
			c1.499,2.581,3.659,3.87,6.479,3.87c2.854,0,5.049-1.289,6.583-3.87c1.533-2.579,2.301-6.299,2.301-11.158
			c0-4.735-0.771-8.405-2.313-11.012C226.856,185.177,224.703,183.873,221.936,183.873z M221.883,211.43
			c-2.111,0-3.662-1.064-4.655-3.191c-0.992-2.128-1.489-5.275-1.489-9.443s0.483-7.298,1.45-9.39
			c0.967-2.093,2.531-3.139,4.694-3.139c4.132,0,6.198,4.177,6.198,12.528C228.081,207.219,226.015,211.43,221.883,211.43z"/>
		<linearGradient id="SVGID_8_" gradientUnits="userSpaceOnUse" x1="2.2495" y1="198.8477" x2="355.5979" y2="198.8477">
			<stop  offset="0" style="stop-color:#64C4AA"/>
			<stop  offset="0.5" style="stop-color:#67A3D8"/>
			<stop  offset="1" style="stop-color:#8A76B6"/>
		</linearGradient>
		<path fill="url(#SVGID_8_)" d="M261.483,186.267c0.992,0,2.083,0.275,3.271,0.824l0.985-2.233
			c-1.188-0.656-2.678-0.984-4.469-0.984c-2.89,0-5.077,1.29-6.558,3.869c-1.48,2.581-2.221,6.337-2.221,11.265
			c0,4.86,0.732,8.543,2.193,11.054c1.464,2.508,3.641,3.763,6.531,3.763c0.62,0,1.356-0.088,2.207-0.266
			c0.853-0.177,1.569-0.425,2.156-0.744v-2.129c-1.473,0.568-2.838,0.852-4.097,0.852c-4.239,0-6.357-4.193-6.357-12.581
			C255.126,190.496,257.244,186.267,261.483,186.267z"/>
		<linearGradient id="SVGID_9_" gradientUnits="userSpaceOnUse" x1="2.207" y1="176.4111" x2="355.6071" y2="176.4111">
			<stop  offset="0" style="stop-color:#64C4AA"/>
			<stop  offset="0.5" style="stop-color:#67A3D8"/>
			<stop  offset="1" style="stop-color:#8A76B6"/>
		</linearGradient>
		<path fill="url(#SVGID_9_)" d="M288.794,173.897c-0.515,0-0.935,0.223-1.264,0.665c-0.328,0.444-0.492,1.064-0.492,1.861
			c0,0.764,0.164,1.371,0.492,1.823c0.329,0.452,0.749,0.678,1.264,0.678c0.479,0,0.86-0.226,1.144-0.678
			c0.284-0.452,0.426-1.06,0.426-1.823c0-0.797-0.142-1.417-0.426-1.861C289.654,174.12,289.272,173.897,288.794,173.897z"/>
		<linearGradient id="SVGID_10_" gradientUnits="userSpaceOnUse" x1="2.2715" y1="198.8613" x2="355.5919" y2="198.8613">
			<stop  offset="0" style="stop-color:#64C4AA"/>
			<stop  offset="0.5" style="stop-color:#67A3D8"/>
			<stop  offset="1" style="stop-color:#8A76B6"/>
		</linearGradient>
		<rect x="287.41" y="184.432" fill="url(#SVGID_10_)" width="2.527" height="28.859"/>
		<linearGradient id="SVGID_11_" gradientUnits="userSpaceOnUse" x1="2.2471" y1="198.8477" x2="355.5978" y2="198.8477">
			<stop  offset="0" style="stop-color:#64C4AA"/>
			<stop  offset="0.5" style="stop-color:#67A3D8"/>
			<stop  offset="1" style="stop-color:#8A76B6"/>
		</linearGradient>
		<path fill="url(#SVGID_11_)" d="M320.919,183.873c-2.199,0-4.3,0.621-6.304,1.861l1.091,1.995c1.72-1.082,3.403-1.622,5.053-1.622
			c1.561,0,2.678,0.616,3.352,1.85c0.674,1.231,1.011,3.195,1.011,5.89v2.395l-3.111,0.16c-2.979,0.142-5.293,1.016-6.943,2.619
			c-1.649,1.605-2.474,3.781-2.474,6.531c0,2.518,0.572,4.525,1.717,6.024c1.144,1.499,2.654,2.247,4.534,2.247
			c2.803,0,4.896-1.524,6.277-4.575h0.106l0.319,4.043h2.075v-19.656c0-3.511-0.522-6.016-1.569-7.514
			C325.006,184.622,323.295,183.873,320.919,183.873z M325.121,201.428c0,3.263-0.501,5.786-1.502,7.568
			c-1.002,1.782-2.407,2.673-4.217,2.673c-1.276,0-2.287-0.487-3.031-1.463c-0.746-0.976-1.118-2.508-1.118-4.602
			c0-2.233,0.563-3.932,1.688-5.094c1.128-1.161,2.851-1.805,5.175-1.929l3.005-0.159V201.428z"/>
		<linearGradient id="SVGID_12_" gradientUnits="userSpaceOnUse" x1="2.2773" y1="192.5977" x2="355.5977" y2="192.5977">
			<stop  offset="0" style="stop-color:#64C4AA"/>
			<stop  offset="0.5" style="stop-color:#67A3D8"/>
			<stop  offset="1" style="stop-color:#8A76B6"/>
		</linearGradient>
		<rect x="351.953" y="171.903" fill="url(#SVGID_12_)" width="2.527" height="41.388"/>
	</g>
	<g>
		<g>
			<linearGradient id="SVGID_13_" gradientUnits="userSpaceOnUse" x1="112.7695" y1="35.6167" x2="245.2206" y2="35.6167">
				<stop  offset="0" style="stop-color:#64C4AA"/>
				<stop  offset="0.5" style="stop-color:#67A3D8"/>
				<stop  offset="1" style="stop-color:#8A76B6"/>
			</linearGradient>
			<path fill="url(#SVGID_13_)" d="M239.784,70.212l0.142-0.082l0.005-28.383l0.001-2.206c-0.32-3.062-1.96-5.723-4.338-7.424
				l-1.768-1.021L184.845,2.805l-1.501-0.867c-0.958-0.456-1.993-0.77-3.085-0.917l31.844,53.209L239.784,70.212z"/>
			<linearGradient id="SVGID_14_" gradientUnits="userSpaceOnUse" x1="112.7671" y1="95.0664" x2="245.2218" y2="95.0664">
				<stop  offset="0" style="stop-color:#64C4AA"/>
				<stop  offset="0.5" style="stop-color:#67A3D8"/>
				<stop  offset="1" style="stop-color:#8A76B6"/>
			</linearGradient>
			<path fill="url(#SVGID_14_)" d="M216.833,84.186l-21.75,12.543c0.895,0.522,3.475,2.026,3.643,2.147l0.538,0.311
				c1.463,1.286,2.372,3.112,2.498,5.07h-0.002c0.049,0.561,0.004,1.126-0.081,1.689L216.833,84.186z"/>
			<linearGradient id="SVGID_15_" gradientUnits="userSpaceOnUse" x1="112.7686" y1="121.0293" x2="245.2208" y2="121.0293">
				<stop  offset="0" style="stop-color:#64C4AA"/>
				<stop  offset="0.5" style="stop-color:#67A3D8"/>
				<stop  offset="1" style="stop-color:#8A76B6"/>
			</linearGradient>
			<path fill="url(#SVGID_15_)" d="M190.675,111.299l-10.497-6.061v31.582l17.719-25.443
				C195.71,112.562,192.986,112.633,190.675,111.299z"/>
			<linearGradient id="SVGID_16_" gradientUnits="userSpaceOnUse" x1="112.769" y1="32.8135" x2="245.2214" y2="32.8135">
				<stop  offset="0" style="stop-color:#64C4AA"/>
				<stop  offset="0.5" style="stop-color:#67A3D8"/>
				<stop  offset="1" style="stop-color:#8A76B6"/>
			</linearGradient>
			<path fill="url(#SVGID_16_)" d="M156.41,36.477c-0.412-1.768-0.186-3.688,0.793-5.386c1.027-1.78,2.683-2.971,4.525-3.458
				L177.575,1c-1.189,0.145-2.313,0.49-3.346,0.999l-1.302,0.751l-0.295,0.171l-49.836,28.76l-7.996-4.615v23.31l24.684,14.25
				L156.41,36.477z"/>
			<linearGradient id="SVGID_17_" gradientUnits="userSpaceOnUse" x1="112.7681" y1="71.6865" x2="245.2208" y2="71.6865">
				<stop  offset="0" style="stop-color:#64C4AA"/>
				<stop  offset="0.5" style="stop-color:#67A3D8"/>
				<stop  offset="1" style="stop-color:#8A76B6"/>
			</linearGradient>
			<polygon fill="url(#SVGID_17_)" points="214.1,72.5 180.178,52.917 180.178,88.124 184.221,90.457 			"/>
			<linearGradient id="SVGID_18_" gradientUnits="userSpaceOnUse" x1="112.7666" y1="18.7695" x2="245.2233" y2="18.7695">
				<stop  offset="0" style="stop-color:#64C4AA"/>
				<stop  offset="0.5" style="stop-color:#67A3D8"/>
				<stop  offset="1" style="stop-color:#8A76B6"/>
			</linearGradient>
			<path fill="url(#SVGID_18_)" d="M167.325,28.379l10.387,5.997V3.163l-14.521,24.257
				C164.588,27.336,166.023,27.628,167.325,28.379z"/>
			<linearGradient id="SVGID_19_" gradientUnits="userSpaceOnUse" x1="112.7681" y1="28.1143" x2="245.2214" y2="28.1143">
				<stop  offset="0" style="stop-color:#64C4AA"/>
				<stop  offset="0.5" style="stop-color:#67A3D8"/>
				<stop  offset="1" style="stop-color:#8A76B6"/>
			</linearGradient>
			<polygon fill="url(#SVGID_19_)" points="180.178,3.275 180.178,35.8 209.89,52.953 			"/>
			<linearGradient id="SVGID_20_" gradientUnits="userSpaceOnUse" x1="112.7681" y1="52.1074" x2="245.2219" y2="52.1074">
				<stop  offset="0" style="stop-color:#64C4AA"/>
				<stop  offset="0.5" style="stop-color:#67A3D8"/>
				<stop  offset="1" style="stop-color:#8A76B6"/>
			</linearGradient>
			<path fill="url(#SVGID_20_)" d="M156.918,37.901l-16.367,27.344l1.853,1.067l35.308-14.514v-0.308l-17.797-10.275
				C158.539,40.421,157.537,39.243,156.918,37.901z"/>
			<linearGradient id="SVGID_21_" gradientUnits="userSpaceOnUse" x1="112.7705" y1="69.9189" x2="245.2191" y2="69.9189">
				<stop  offset="0" style="stop-color:#64C4AA"/>
				<stop  offset="0.5" style="stop-color:#67A3D8"/>
				<stop  offset="1" style="stop-color:#8A76B6"/>
			</linearGradient>
			<polygon fill="url(#SVGID_21_)" points="177.712,86.699 177.712,53.139 143.746,67.088 			"/>
			<linearGradient id="SVGID_22_" gradientUnits="userSpaceOnUse" x1="112.769" y1="103.9834" x2="245.2204" y2="103.9834">
				<stop  offset="0" style="stop-color:#64C4AA"/>
				<stop  offset="0.5" style="stop-color:#67A3D8"/>
				<stop  offset="1" style="stop-color:#8A76B6"/>
			</linearGradient>
			<path fill="url(#SVGID_22_)" d="M118.135,69.417l-0.136,0.079l-0.035,0.02l-0.004,28.999c-0.005,0.135-0.021,0.268-0.021,0.404
				c0,0.134,0.016,0.267,0.021,0.401c0.133,3.52,1.994,6.594,4.766,8.396l0.92,0.529l49.115,28.367l0.165,0.095
				c0.555,0.398,1.152,0.744,1.783,1.029c0.872,0.396,1.808,0.669,2.787,0.813l-40.341-58.151L118.135,69.417z"/>
			<linearGradient id="SVGID_23_" gradientUnits="userSpaceOnUse" x1="112.7676" y1="105.8828" x2="245.2204" y2="105.8828">
				<stop  offset="0" style="stop-color:#64C4AA"/>
				<stop  offset="0.5" style="stop-color:#67A3D8"/>
				<stop  offset="1" style="stop-color:#8A76B6"/>
			</linearGradient>
			<path fill="url(#SVGID_23_)" d="M185.444,91.164l8.406,4.854L221,80.36l-31.738,45.576l-8.791,12.625
				c1.254-0.176,2.44-0.56,3.512-1.138l0.159-0.089l1.26-0.729l49.706-28.688l7.983,4.609V89.239L215.32,73.204L185.444,91.164z"/>
			<linearGradient id="SVGID_24_" gradientUnits="userSpaceOnUse" x1="112.7681" y1="109.2588" x2="245.2213" y2="109.2588">
				<stop  offset="0" style="stop-color:#64C4AA"/>
				<stop  offset="0.5" style="stop-color:#67A3D8"/>
				<stop  offset="1" style="stop-color:#8A76B6"/>
			</linearGradient>
			<polygon fill="url(#SVGID_24_)" points="177.712,136.702 177.712,103.797 139.646,81.815 			"/>
		</g>
		<g opacity="0.1">
			<path fill="#363B59" d="M216.833,84.186l-21.75,12.543c0.895,0.522,3.475,2.026,3.643,2.147l0.538,0.311
				c1.463,1.286,2.372,3.112,2.498,5.07h-0.002c0.049,0.561,0.004,1.126-0.081,1.689L216.833,84.186z"/>
			<path fill="#363B59" d="M190.675,111.299l-10.497-6.061v31.582l17.719-25.443C195.71,112.562,192.986,112.633,190.675,111.299z"
				/>
			<polygon fill="#363B59" points="214.1,72.5 180.178,52.917 180.178,88.124 184.221,90.457 			"/>
			<path fill="#FFFFFF" d="M167.325,28.379l10.387,5.997V3.163l-14.521,24.257C164.588,27.336,166.023,27.628,167.325,28.379z"/>
			<polygon fill="#363B59" points="180.178,3.275 180.178,35.8 209.89,52.953 			"/>
			<path fill="#FFFFFF" d="M156.918,37.901l-16.367,27.344l1.853,1.067l35.308-14.514v-0.308l-17.797-10.275
				C158.539,40.421,157.537,39.243,156.918,37.901z"/>
			<polygon fill="#363B59" points="177.712,86.699 177.712,53.139 143.746,67.088 			"/>
			<polygon fill="#FFFFFF" points="177.712,136.702 177.712,103.797 139.646,81.815 			"/>
		</g>
	</g>
</g>
</svg>
